<svg width="21" height="21" viewBox="0 0 21 21" fill="none" xmlns="http://www.w3.org/2000/svg">
<path d="M8.36079 4.66999L8.35079 8.68999C7.99012 8.60777 7.62061 8.57082 7.25079 8.57999C6.88079 8.67999 6.51079 9.20999 6.15079 9.33999C5.94645 8.42663 6.05289 7.47119 6.45324 6.6252C6.85359 5.77921 7.52493 5.09109 8.36079 4.66999ZM10.7708 4.02999L12.8008 7.47999C13.0455 7.23206 13.3293 7.02599 13.6408 6.86999C14.0008 6.76999 14.5808 7.03999 14.9808 6.97999C14.7047 6.09158 14.1415 5.31993 13.3796 4.78605C12.6177 4.25217 11.7001 3.98625 10.7708 4.02999ZM4.00079 16H17.0008C16.3408 15.34 14.3608 14.89 12.6608 14.67L10.7908 7.66999C11.3108 7.61999 11.9408 7.69999 12.3208 7.66999L10.2108 4.06999H10.2008C9.96496 4.10312 9.73123 4.14987 9.50079 4.20999C9.2821 4.26671 9.06813 4.34026 8.86079 4.42999L8.85079 8.57999C9.20079 8.40999 9.69079 8.03999 10.1508 7.83999L11.9508 14.58C11.3708 14.53 10.8608 14.5 10.5008 14.5C9.03079 14.5 5.00079 15 4.00079 16Z" fill="#9EA9B7"/>
</svg>
