<svg width="21" height="21" viewBox="0 0 21 21" fill="none" xmlns="http://www.w3.org/2000/svg">
<path d="M9.65 5C8.43 5 7.48 6.38 7.11 6.82C7.0365 6.9102 6.9975 7.0237 7 7.14V11.54C6.9884 11.7827 7.1758 11.9889 7.4185 12.0005C7.528 12.0057 7.6355 11.9699 7.72 11.9C8.1865 11.2736 8.8789 10.8539 9.65 10.73C11.06 10.73 11.6 12 13.07 12C14.0648 11.9024 15.0115 11.5244 15.8 10.91C15.9272 10.8166 16.0016 10.6678 16 10.51V5.45C16.0275 5.2086 15.8541 4.9905 15.6126 4.963C15.5332 4.954 15.4527 4.9668 15.38 5C14.6987 5.5212 13.9094 5.8834 13.07 6.06C11.6 6.08 11.12 5 9.65 5ZM5.5 6C4.9477 6 4.5 5.5523 4.5 5C4.5 4.4477 4.9477 4 5.5 4C6.0523 4 6.5 4.4477 6.5 5C6.5 5.5523 6.0523 6 5.5 6ZM6 7V16.48C6 16.7561 5.7761 16.98 5.5 16.98C5.2239 16.98 5 16.7561 5 16.48V7C5 6.7239 5.2239 6.5 5.5 6.5C5.7761 6.5 6 6.7239 6 7Z" fill="#9EA9B7"/>
</svg>
