<svg width="21" height="21" viewBox="0 0 21 21" fill="none" xmlns="http://www.w3.org/2000/svg">
<path d="M14 7H7C6.4477 7 6 6.5523 6 6V3.5C6 3.2239 6.2239 3 6.5 3C6.7761 3 7 3.2239 7 3.5V5H8V4C8 3.4477 8.4477 3 9 3C9.5523 3 10 3.4477 10 4V5H11V4C11 3.4477 11.4477 3 12 3C12.5523 3 13 3.4477 13 4V5H14V3.5C14 3.2239 14.2239 3 14.5 3C14.7761 3 15 3.2239 15 3.5V6C15 6.5523 14.5523 7 14 7ZM17 17.5C17 17.7761 16.7761 18 16.5 18H4.5C4.2239 18 4 17.7761 4 17.5C4 17.2239 4.2239 17 4.5 17H5C5.5523 17 6 16.5523 6 16C6 16 7 10 7 9C7 8.4477 7.4477 8 8 8H13C13.5523 8 14 8.4477 14 9C14 10 15 16 15 16C15 16.5523 15.4477 17 16 17H16.5C16.7723 16.9999 16.9946 17.2178 17 17.49V17.5ZM12 13.5C12 12.6716 11.3284 12 10.5 12C9.6716 12 9 12.6716 9 13.5V17H12V13.5Z" fill="#9EA9B7"/>
</svg>
