<svg width="21" height="21" viewBox="0 0 21 21" fill="none" xmlns="http://www.w3.org/2000/svg">
<path d="M9 5C8.446 5 8.2478 5.5045 8 6L7.5 7H5.5C4.669 7 4 7.669 4 8.5V13.5C4 14.331 4.669 15 5.5 15H15.5C16.331 15 17 14.331 17 13.5V8.5C17 7.669 16.331 7 15.5 7H13.5L13 6C12.75 5.5 12.554 5 12 5H9ZM5.5 8C5.7761 8 6 8.2239 6 8.5C6 8.7761 5.7761 9 5.5 9C5.2239 9 5 8.7761 5 8.5C5 8.2239 5.2239 8 5.5 8ZM10.5 8C12.1569 8 13.5 9.3431 13.5 11C13.5 12.6569 12.1569 14 10.5 14C8.8431 14 7.5 12.6569 7.5 11C7.5 9.3431 8.8431 8 10.5 8ZM10.5 9.5C9.6716 9.5 9 10.1716 9 11C9 11.8284 9.6716 12.5 10.5 12.5C11.3284 12.5 12 11.8284 12 11C12 10.1716 11.3284 9.5 10.5 9.5Z" fill="#9EA9B7"/>
</svg>
