<svg width="21" height="21" viewBox="0 0 21 21" fill="none" xmlns="http://www.w3.org/2000/svg">
<path d="M16 11C16 14.31 13.81 17 10.5 17C7.19 17 5 14.31 5 11C7.2643 11.0191 9.2694 12.4667 10 14.61V10H7.5C6.6716 10 6 9.3284 6 8.5V5.5C6 5.2239 6.2239 5 6.5 5C6.6574 5 6.8056 5.0741 6.9 5.2L8.43 7.2L10.08 4.2C10.2298 3.968 10.5393 3.9015 10.7713 4.0513C10.8308 4.0898 10.8815 4.1404 10.92 4.2L12.57 7.2L14.1 5.2C14.2657 4.9791 14.5791 4.9343 14.8 5.1C14.9259 5.1944 15 5.3426 15 5.5V8.5C15 9.3284 14.3284 10 13.5 10H11V14.61C11.7306 12.4667 13.7357 11.0191 16 11Z" fill="#9EA9B7"/>
</svg>
