<svg width="21" height="21" viewBox="0 0 21 21" fill="none" xmlns="http://www.w3.org/2000/svg">
<path d="M10.5 17.941L10.1 17.446C9.12701 16.257 5.20001 10.89 5.20001 8.286C5.14034 6.94374 5.61632 5.63275 6.52325 4.64143C7.43017 3.65011 8.69375 3.05967 10.036 3C10.184 2.99333 10.3323 2.99333 10.481 3C11.8233 2.94033 13.1343 3.41631 14.1256 4.32323C15.1169 5.23016 15.7073 6.49374 15.767 7.836C15.7737 7.986 15.7737 8.136 15.767 8.286C15.767 10.499 13.098 14.397 11.089 17.137L10.5 17.941ZM10.481 3.986C9.90786 3.95369 9.33435 4.04278 8.79801 4.24745C8.26167 4.45212 7.7746 4.76774 7.36867 5.17366C6.96275 5.57959 6.64713 6.06666 6.44246 6.60299C6.2378 7.13933 6.1487 7.71285 6.18101 8.286C6.18101 10.118 8.94001 14.324 10.467 16.32C11.717 14.61 14.782 10.331 14.782 8.286C14.8143 7.71285 14.7252 7.13933 14.5206 6.60299C14.3159 6.06666 14.0003 5.57959 13.5943 5.17366C13.1884 4.76774 12.7014 4.45212 12.165 4.24745C11.6287 4.04278 11.0552 3.95369 10.482 3.986H10.481Z" fill="#9EA9B7"/>
</svg>
