<svg width="21" height="21" viewBox="0 0 21 21" fill="none" xmlns="http://www.w3.org/2000/svg">
<path d="M6.5 3L5.5 8.5C5.3536 9.305 7.2815 9.681 7.25 10.5L7 17C6.9616 17.9993 8 18 8 18C8 18 9.0384 17.9993 9 17L8.75 10.5C8.7186 9.6824 10.4834 9.3192 10.5 8.5L9.5 3H9L9.25 7L8.5 7.5L8.25 3H7.75L7.5 7.5L6.75 7L7 3H6.5ZM15 3C14.2636 3 13.0358 3.6549 12.5449 4.6367C12.1358 5.3731 12 7.0182 12 8V10.5C12 11.3182 13.0909 11.5 13.5 11.5L13 17C12.9095 17.9959 14 18 14 18C14 18 15 18 15 17V3Z" fill="#9EA9B7"/>
</svg>
