<svg width="21" height="21" viewBox="0 0 21 21" fill="none" xmlns="http://www.w3.org/2000/svg">
<path d="M9.176 7.176C9.12931 7.12934 9.066 7.10313 9 7.10313C8.93399 7.10313 8.87069 7.12934 8.824 7.176L4.424 11.576C4.39002 11.611 4.36704 11.6553 4.3579 11.7032C4.34877 11.7512 4.35387 11.8008 4.37259 11.8459C4.3913 11.891 4.42281 11.9296 4.46322 11.957C4.50364 11.9844 4.55118 11.9993 4.6 12H6V16.751C6 16.817 6.02623 16.8804 6.07293 16.9271C6.11963 16.9738 6.18296 17 6.249 17H9.749C9.7817 17.0003 9.81413 16.9941 9.84444 16.9818C9.87475 16.9695 9.90235 16.9514 9.92566 16.9285C9.94896 16.9055 9.96753 16.8782 9.98028 16.8481C9.99304 16.818 9.99974 16.7857 10 16.753V11.323C10 11.257 10.0263 11.1937 10.073 11.147L11.5 9.5L9.176 7.176ZM9 15H8V14H9V15ZM9 13H8V12H9V13ZM15.75 9H15.25C15.1837 9 15.1201 9.02633 15.0732 9.07322C15.0263 9.1201 15 9.18369 15 9.25V11L13.676 9.176C13.6293 9.12934 13.566 9.10313 13.5 9.10313C13.434 9.10313 13.3707 9.12934 13.324 9.176L11.056 11.932C11.0198 11.976 11.0001 12.0311 11 12.088V16.748C10.9996 16.7807 11.0057 16.8132 11.0178 16.8435C11.0299 16.8739 11.048 16.9015 11.0708 16.9249C11.0936 16.9483 11.1209 16.967 11.1509 16.9799C11.181 16.9928 11.2133 16.9996 11.246 17H12.746C12.7792 17.0001 12.8121 16.9937 12.8429 16.9811C12.8736 16.9685 12.9016 16.95 12.9252 16.9266C12.9488 16.9032 12.9675 16.8754 12.9804 16.8447C12.9932 16.8141 12.9999 16.7812 13 16.748V15H14V16.747C14 16.8141 14.0267 16.8784 14.0741 16.9259C14.1215 16.9733 14.1859 17 14.253 17H15.753C15.8186 16.9992 15.8813 16.9727 15.9275 16.9261C15.9737 16.8795 15.9997 16.8166 16 16.751V9.25C16 9.18369 15.9737 9.1201 15.9268 9.07322C15.8799 9.02633 15.8163 9 15.75 9ZM13 14H12V13H13V14ZM15 14H14V13H15V14Z" fill="#9EA9B7"/>
</svg>
